{"title":"12 Years A Slave 2013 DVD-R (RLG)","uid":9656504,"size":4663676928,"categoryP":"video","categoryS":"movies_dvdr","magnet":"?xt=urn:btih:770a823d08f3fbd725186ce0b48721d756539b5c&amp;dn=12+Years+A+Slave+2013+DVD-R+%28RLG%29&amp;tr=udp%3A%2F%2Ftracker.openbittorrent.com%3A80&amp;tr=udp%3A%2F%2Fopen.demonii.com%3A1337&amp;tr=udp%3A%2F%2Ftracker.coppersurfer.tk%3A6969&amp;tr=udp%3A%2F%2Fexodus.desync.com%3A6969","seeders":2,"leechers":0,"uploader":"RedLegsGreaves","files":-1,"time":1393195318,"description":" &lt;a href=&quot;http://www.imdb.com/title/tt2024544/?ref_=nv_sr_1&quot; rel=&quot;nofollow&quot; target=&quot;_NEW&quot;&gt;http://www.imdb.com/title/tt2024544/?ref_=nv_sr_1&lt;/a&gt;\nIn the antebellum United States, Solomon Northup, a free black man from upstate New York, is abducted and sold into slavery.\n\nLanguage: English\nSubtitles: English, French, Spanish (Latin America)\n\nFor Newer Users.\nSimply Drag downloaded folder to your Media Player. This is a NTSC DVD.\nThis is ripped so you would have best quality, menu, bonus/special feature, language options etc.\nNote DVDs may not have have all* features.\n\nScreenshots\n\n\nVideo\nID : 224 (0xE0)\nFormat : MPEG Video\nDuration : 253ms\nBit rate mode : Variable\nBit rate : 12.6 Mbps\nMaximum bit rate : 9 800 Kbps\nWidth : 720 pixels\nHeight : 480 pixels\nDisplay aspect ratio : 16:9\nFrame rate : 29.970 fps\nStandard : NTSC\nColor space : YUV\nChroma subsampling : 4:2:0\nBit depth : 8 bits\nCompression mode : Lossy\nBits/(Pixel*Frame) : 1.219\nTime code of first frame : 00:59:58:00\nTime code source : Group of pictures header\nStream size : 412 KiB (0%)\nColor primaries : BT.601 NTSC\nTransfer characteristics : BT.601\nMatrix coefficients : BT.601\n\nAudio\nID : 189 (0xBD)-128 (0x80)\nFormat : AC-3\nFormat/Info : Audio Coding 3\nMode extension : CM (complete main)\nFormat settings, Endianness : Big\nMuxing mode : DVD-Video\nDuration : 57s 216ms\nBit rate mode : Constant\nBit rate : 448 Kbps\nChannel(s) : 6 channels\nChannel positions : Front: L C R, Side: L R, LFE\nSampling rate : 48.0 KHz\nBit depth : 16 bits\nCompression mode : Lossy\nStream size : 3.06 MiB (3%)\n\n\n","torrent":{"xt":"urn:btih:770a823d08f3fbd725186ce0b48721d756539b5c","amp;dn":"12+Years+A+Slave+2013+DVD-R+%28RLG%29","amp;tr":["udp%3A%2F%2Ftracker.openbittorrent.com%3A80","udp%3A%2F%2Fopen.demonii.com%3A1337","udp%3A%2F%2Ftracker.coppersurfer.tk%3A6969","udp%3A%2F%2Fexodus.desync.com%3A6969"],"infoHash":"770a823d08f3fbd725186ce0b48721d756539b5c","infoHashBuffer":{"type":"Buffer","data":[119,10,130,61,8,243,251,215,37,24,108,224,180,135,33,215,86,83,155,92]},"announce":[],"urlList":[]}}